<svg width="479" height="411" viewBox="0 0 479 411" fill="none" xmlns="http://www.w3.org/2000/svg">
<g clip-path="url(#clip0_299_13519)">
<path d="M479 0H0V411H479V0Z" fill="white"/>
<path d="M430.281 276.664H48.7109V285.906H430.281V276.664Z" fill="#181818"/>
<path d="M464.504 326.323C464.504 326.323 455.267 332.986 441.296 332.986H37.7301C23.7593 332.986 14.5625 326.348 14.5625 326.348L18.1438 325.266H461.854L464.504 326.323Z" fill="url(#paint0_linear_299_13519)"/>
<path d="M465.267 321.047L465.27 325.184C465.27 325.911 464.584 326.5 463.737 326.5H15.2602C14.4131 326.5 13.7266 325.911 13.7266 325.184L13.7298 321.047H465.267Z" fill="url(#paint1_linear_299_13519)"/>
<path d="M463.83 322.324H15.1662C13.9447 322.324 13.2821 321.105 14.0645 320.296L47.7063 285.896C48.289 285.293 49.1592 284.943 50.0693 284.93H428.926C429.837 284.943 430.707 285.293 431.289 285.896L464.931 320.296C465.714 321.105 465.051 322.324 463.83 322.324Z" fill="url(#paint2_linear_299_13519)"/>
<path d="M421.702 288.217L434.532 303.113C435.222 303.914 434.555 305.049 433.393 305.049H45.6052C44.4436 305.049 43.777 303.914 44.4668 303.113L57.1387 288.4C57.5371 287.937 58.1678 287.664 58.8376 287.664H420.426C420.93 287.664 421.403 287.87 421.702 288.217Z" fill="#2C2C2C"/>
<path d="M424.31 78.0156H54.6821C51.5957 78.0156 49.0938 80.1624 49.0938 82.8106V276.666C49.0938 279.314 51.5957 281.461 54.6821 281.461H424.31C427.397 281.461 429.899 279.314 429.899 276.666V82.8106C429.899 80.1624 427.397 78.0156 424.31 78.0156Z" fill="url(#paint3_linear_299_13519)"/>
<path d="M424.31 78.0156H54.6821C51.5957 78.0156 49.0938 80.1624 49.0938 82.8106V276.666C49.0938 279.314 51.5957 281.461 54.6821 281.461H424.31C427.397 281.461 429.899 279.314 429.899 276.666V82.8106C429.899 80.1624 427.397 78.0156 424.31 78.0156Z" stroke="url(#paint4_linear_299_13519)" stroke-miterlimit="10"/>
<path d="M54.6841 278.723C53.3636 278.723 52.2891 277.801 52.2891 276.668V82.8128C52.2891 81.6798 53.3636 80.7578 54.6841 80.7578H424.312C425.633 80.7578 426.707 81.6798 426.707 82.8128V276.668C426.707 277.801 425.633 278.723 424.312 278.723H54.6841Z" fill="url(#paint5_linear_299_13519)"/>
<path d="M54.6841 278.723C53.3636 278.723 52.2891 277.801 52.2891 276.668V82.8128C52.2891 81.6798 53.3636 80.7578 54.6841 80.7578H424.312C425.633 80.7578 426.707 81.6798 426.707 82.8128V276.668C426.707 277.801 425.633 278.723 424.312 278.723H54.6841Z" stroke="url(#paint6_linear_299_13519)" stroke-miterlimit="10"/>
<path d="M422.316 92.3984H56.6797V269.813H422.316V92.3984Z" fill="url(#paint7_linear_299_13519)"/>
<path d="M420.766 268.667L420.766 93.5469L58.2337 93.5469L58.2337 268.667L420.766 268.667Z" fill="white"/>
<path d="M256.61 319.578H256.044L255.147 308.352C255.125 308.085 254.868 307.879 254.557 307.879H120.439C120.21 307.879 120.001 307.992 119.904 308.17L113.653 319.578H112.719L119.382 307.496C119.525 307.236 119.83 307.07 120.166 307.07H254.795C255.251 307.07 255.629 307.373 255.661 307.764L256.61 319.578Z" fill="url(#paint8_linear_299_13519)"/>
<path d="M333.394 304.337H309.503C309.315 304.337 309.153 304.226 309.113 304.069L308.619 302.151C308.564 301.937 308.754 301.734 309.009 301.734H332.624C332.794 301.734 332.946 301.827 333.002 301.965L333.772 303.883C333.861 304.106 333.668 304.337 333.394 304.337Z" fill="url(#paint9_linear_299_13519)"/>
<path d="M134.128 302.202L133.251 304.126C133.191 304.258 133.043 304.344 132.879 304.344H114.79C114.499 304.344 114.306 304.086 114.428 303.859L115.459 301.934C115.524 301.812 115.665 301.734 115.821 301.734H133.757C134.038 301.734 134.231 301.977 134.128 302.202Z" fill="url(#paint10_linear_299_13519)"/>
<path d="M180.799 298.945H198.856C199.103 298.945 199.29 299.135 199.25 299.343L198.966 300.823C198.934 300.989 198.767 301.11 198.573 301.11H180.423C180.168 301.11 179.978 300.908 180.033 300.694L180.41 299.215C180.449 299.058 180.612 298.945 180.799 298.945Z" fill="url(#paint11_linear_299_13519)"/>
<path d="M202.097 298.945H220.006C220.234 298.945 220.415 299.108 220.405 299.303L220.329 300.782C220.319 300.965 220.144 301.11 219.93 301.11H201.813C201.566 301.11 201.38 300.92 201.419 300.712L201.703 299.232C201.736 299.067 201.902 298.945 202.097 298.945Z" fill="url(#paint12_linear_299_13519)"/>
<path d="M241.659 299.29L241.648 300.769C241.646 300.958 241.468 301.11 241.249 301.11H223.134C222.906 301.11 222.725 300.947 222.735 300.752L222.811 299.273C222.821 299.09 222.997 298.945 223.211 298.945H241.26C241.481 298.945 241.661 299.1 241.659 299.29Z" fill="url(#paint13_linear_299_13519)"/>
<path d="M262.889 299.262L263.02 300.741C263.038 300.94 262.855 301.11 262.622 301.11H244.446C244.225 301.11 244.045 300.955 244.047 300.765L244.058 299.286C244.06 299.097 244.238 298.945 244.457 298.945H262.492C262.7 298.945 262.873 299.083 262.889 299.262Z" fill="url(#paint14_linear_299_13519)"/>
<path d="M284.1 299.23L284.395 300.71C284.436 300.919 284.248 301.11 284.001 301.11H265.812C265.603 301.11 265.429 300.972 265.413 300.793L265.282 299.314C265.265 299.115 265.448 298.945 265.681 298.945H283.706C283.901 298.945 284.067 299.065 284.1 299.23Z" fill="url(#paint15_linear_299_13519)"/>
<path d="M305.301 301.11H287.243C287.048 301.11 286.881 300.989 286.849 300.824L286.56 299.345C286.52 299.136 286.707 298.945 286.954 298.945H304.881C305.066 298.945 305.225 299.054 305.269 299.207L305.689 300.687C305.75 300.902 305.56 301.11 305.301 301.11Z" fill="url(#paint16_linear_299_13519)"/>
<path d="M355.003 299.177L355.592 300.656C355.68 300.878 355.488 301.11 355.214 301.11H308.585C308.401 301.11 308.241 301.002 308.197 300.848L307.777 299.369C307.716 299.153 307.907 298.945 308.165 298.945H354.625C354.795 298.945 354.947 299.038 355.003 299.177Z" fill="url(#paint17_linear_299_13519)"/>
<path d="M373.245 299.142L374.003 300.622C374.119 300.848 373.926 301.102 373.637 301.102H358.593C358.422 301.102 358.27 301.008 358.214 300.869L357.631 299.39C357.543 299.168 357.735 298.938 358.009 298.938H372.88C373.038 298.938 373.182 299.018 373.245 299.142Z" fill="url(#paint18_linear_299_13519)"/>
<path d="M391.864 301.11H377.127C376.969 301.11 376.825 301.03 376.761 300.905L376.003 299.426C375.887 299.199 376.08 298.945 376.368 298.945H390.921C391.067 298.945 391.201 299.014 391.271 299.123L392.215 300.603C392.36 300.831 392.167 301.11 391.864 301.11Z" fill="url(#paint19_linear_299_13519)"/>
<path d="M389.213 296.311L390.334 297.777C390.508 298.004 390.318 298.307 390.001 298.307H375.689C375.543 298.307 375.408 298.239 375.338 298.128L374.408 296.662C374.264 296.434 374.456 296.156 374.759 296.156H388.88C389.015 296.156 389.14 296.214 389.213 296.311Z" fill="url(#paint20_linear_299_13519)"/>
<path d="M371.481 296.335L372.411 297.801C372.555 298.029 372.363 298.307 372.06 298.307H357.079C356.911 298.307 356.76 298.216 356.703 298.08L356.094 296.614C356.001 296.391 356.194 296.156 356.47 296.156H371.13C371.277 296.156 371.411 296.225 371.481 296.335Z" fill="url(#paint21_linear_299_13519)"/>
<path d="M424.379 298.307H411.734C411.599 298.307 411.474 298.249 411.4 298.152L410.284 296.686C410.111 296.458 410.301 296.156 410.619 296.156H422.942C423.185 296.156 423.414 296.254 423.56 296.42L424.714 297.732C424.922 297.965 424.73 298.307 424.379 298.307Z" fill="url(#paint22_linear_299_13519)"/>
<path d="M272.804 298.307H254.813C254.593 298.307 254.414 298.154 254.414 297.965V296.499C254.414 296.31 254.593 296.156 254.813 296.156H272.657C272.864 296.156 273.037 296.293 273.054 296.469L273.201 297.935C273.221 298.135 273.038 298.307 272.804 298.307Z" fill="url(#paint23_linear_299_13519)"/>
<path d="M80.848 294.076L80.0824 295.087C79.8788 295.357 79.5292 295.52 79.1547 295.52H57.0656C56.597 295.52 56.3272 295.063 56.6034 294.739L57.4017 293.8C57.5375 293.641 57.753 293.547 57.9829 293.547H80.5127C80.8296 293.547 81.0204 293.848 80.848 294.076Z" fill="url(#paint24_linear_299_13519)"/>
<path d="M101.726 294.065L101.036 295.057C100.836 295.344 100.475 295.52 100.087 295.52H83.3375C83.0205 295.52 82.8297 295.218 83.003 294.99L83.7734 293.977C83.9777 293.709 84.3258 293.547 84.6994 293.547H101.384C101.694 293.547 101.885 293.837 101.726 294.065Z" fill="url(#paint25_linear_299_13519)"/>
<path d="M122.557 294.038L122.03 294.981C121.846 295.311 121.458 295.52 121.033 295.52H104.205C103.895 295.52 103.703 295.231 103.861 295.003L104.547 294.011C104.747 293.724 105.108 293.547 105.498 293.547H122.197C122.49 293.548 122.684 293.811 122.557 294.038Z" fill="url(#paint26_linear_299_13519)"/>
<path d="M72.9519 291.387L71.9228 292.54C71.7137 292.774 71.3888 292.911 71.0447 292.911H59.2732C58.8014 292.911 58.5292 292.452 58.807 292.124L59.6884 291.089C59.8241 290.93 60.0396 290.836 60.2696 290.836H72.6349C72.9663 290.836 73.1531 291.161 72.9519 291.387Z" fill="url(#paint27_linear_299_13519)"/>
<path d="M93.379 291.351L92.6421 292.44C92.4441 292.732 92.0801 292.911 91.6857 292.911H75.4077C75.0772 292.911 74.8896 292.586 75.0908 292.361L76.1198 291.208C76.329 290.974 76.6539 290.836 76.998 290.836H93.0341C93.3415 290.837 93.5331 291.123 93.379 291.351Z" fill="url(#paint28_linear_299_13519)"/>
<path d="M113.709 291.333L113.086 292.39C112.898 292.71 112.516 292.911 112.099 292.911H95.7902C95.4829 292.911 95.2905 292.625 95.4453 292.397L96.1822 291.308C96.3802 291.015 96.7442 290.836 97.1386 290.836H113.353C113.65 290.836 113.843 291.105 113.709 291.333Z" fill="url(#paint29_linear_299_13519)"/>
<path d="M134.15 291.301L133.53 292.692C133.471 292.824 133.323 292.911 133.157 292.911H116.11C115.813 292.911 115.62 292.642 115.754 292.415L116.377 291.357C116.566 291.037 116.947 290.836 117.364 290.836H133.778C134.058 290.836 134.25 291.076 134.15 291.301Z" fill="url(#paint30_linear_299_13519)"/>
<path d="M154.874 291.258L154.489 292.648C154.446 292.803 154.285 292.911 154.101 292.911H136.587C136.307 292.911 136.114 292.671 136.214 292.446L136.834 291.056C136.894 290.924 137.042 290.836 137.207 290.836H154.486C154.743 290.837 154.933 291.043 154.874 291.258Z" fill="url(#paint31_linear_299_13519)"/>
<path d="M174.937 291.221L174.733 292.611C174.708 292.783 174.538 292.911 174.337 292.911H157.376C157.118 292.911 156.928 292.705 156.988 292.49L157.372 291.099C157.416 290.945 157.576 290.836 157.76 290.836H174.54C174.78 290.836 174.966 291.017 174.937 291.221Z" fill="url(#paint32_linear_299_13519)"/>
<path d="M195.446 291.205L195.317 292.596C195.301 292.774 195.127 292.911 194.92 292.911H177.563C177.323 292.911 177.137 292.731 177.167 292.527L177.371 291.136C177.396 290.965 177.566 290.836 177.767 290.836H195.049C195.281 290.836 195.464 291.007 195.446 291.205Z" fill="url(#paint33_linear_299_13519)"/>
<path d="M216.216 291.184L216.189 292.574C216.185 292.761 216.008 292.911 215.79 292.911H198.125C197.892 292.911 197.709 292.741 197.728 292.542L197.856 291.152C197.873 290.974 198.046 290.836 198.254 290.836H215.817C216.04 290.836 216.22 290.993 216.216 291.184Z" fill="url(#paint34_linear_299_13519)"/>
<path d="M236.534 291.178V292.569C236.534 292.758 236.355 292.911 236.135 292.911H218.977C218.755 292.911 218.574 292.755 218.578 292.564L218.605 291.173C218.609 290.986 218.787 290.836 219.004 290.836H236.135C236.355 290.836 236.534 290.989 236.534 291.178Z" fill="url(#paint35_linear_299_13519)"/>
<path d="M257.028 291.178V292.569C257.028 292.758 256.849 292.911 256.629 292.911H239.329C239.109 292.911 238.93 292.758 238.93 292.569V291.178C238.93 290.989 239.109 290.836 239.329 290.836H256.629C256.849 290.836 257.028 290.989 257.028 291.178Z" fill="url(#paint36_linear_299_13519)"/>
<path d="M351.27 292.911H321.453C321.274 292.911 321.118 292.81 321.069 292.663L320.609 291.272C320.537 291.054 320.728 290.836 320.993 290.836H350.033C350.455 290.836 350.84 291.041 351.026 291.366L351.628 292.418C351.759 292.645 351.565 292.911 351.27 292.911Z" fill="url(#paint37_linear_299_13519)"/>
<path d="M79.0122 288.902L78.1356 289.884C77.9264 290.118 77.6023 290.256 77.2582 290.256H61.5287C61.0608 290.256 60.7886 289.801 61.0624 289.475L61.488 288.968C61.8129 288.581 62.335 288.352 62.8906 288.352H78.6952C79.0257 288.352 79.2133 288.677 79.0122 288.902Z" fill="url(#paint38_linear_299_13519)"/>
<path d="M117.524 288.829L117.099 289.68C116.925 290.03 116.525 290.256 116.083 290.256H100.884C100.575 290.256 100.383 289.967 100.541 289.739L101.179 288.816C101.378 288.528 101.739 288.352 102.13 288.352H117.158C117.443 288.352 117.637 288.603 117.524 288.829Z" fill="url(#paint39_linear_299_13519)"/>
<path d="M175.191 288.728L175.112 289.402C175.056 289.887 174.58 290.256 174.012 290.256H158.407C158.155 290.256 157.966 290.058 158.016 289.846L158.188 289.113C158.291 288.67 158.745 288.352 159.272 288.352H174.794C175.03 288.352 175.214 288.526 175.191 288.728Z" fill="url(#paint40_linear_299_13519)"/>
<path d="M213.376 289.314V289.321C213.367 289.839 212.875 290.256 212.27 290.256H196.798C196.567 290.256 196.384 290.089 196.399 289.891L196.449 289.239C196.486 288.74 196.969 288.352 197.552 288.352H212.271C212.887 288.352 213.385 288.784 213.376 289.314Z" fill="url(#paint41_linear_299_13519)"/>
<path d="M232.435 289.3V289.307C232.435 289.831 231.94 290.256 231.329 290.256H216.879C216.262 290.256 215.765 289.823 215.774 289.293V289.287C215.782 288.768 216.275 288.352 216.879 288.352H231.329C231.94 288.352 232.435 288.776 232.435 289.3Z" fill="url(#paint42_linear_299_13519)"/>
<path d="M289.951 290.256H274.872C274.289 290.256 273.806 289.868 273.768 289.369L273.72 288.724C273.704 288.527 273.887 288.359 274.118 288.359H289.17C289.737 288.359 290.212 288.728 290.27 289.213L290.348 289.88C290.372 290.081 290.188 290.256 289.951 290.256Z" fill="url(#paint43_linear_299_13519)"/>
<path d="M117.42 298.945H135.038C135.322 298.945 135.516 299.193 135.407 299.419L134.692 300.898C134.631 301.026 134.485 301.11 134.324 301.11H116.579C116.284 301.11 116.091 300.845 116.221 300.617L117.061 299.138C117.127 299.02 117.266 298.945 117.42 298.945Z" fill="url(#paint44_linear_299_13519)"/>
<path d="M53.4031 298.945H92.4161C92.7234 298.945 92.915 299.23 92.7617 299.459L91.7686 300.939C91.6976 301.045 91.5658 301.11 91.4229 301.11H52.3357C51.8639 301.11 51.5917 300.651 51.8695 300.324L52.8227 299.199C52.9576 299.039 53.1732 298.945 53.4031 298.945Z" fill="url(#paint45_linear_299_13519)"/>
<path d="M96.1107 298.945H113.873C114.168 298.945 114.361 299.211 114.231 299.439L113.386 300.918C113.319 301.035 113.18 301.11 113.027 301.11H95.1184C94.811 301.11 94.6194 300.825 94.7727 300.596L95.7658 299.117C95.8361 299.01 95.9678 298.945 96.1107 298.945Z" fill="url(#paint46_linear_299_13519)"/>
<path d="M138.497 298.945H156.521C156.792 298.945 156.985 299.173 156.9 299.394L156.338 300.874C156.284 301.015 156.131 301.11 155.959 301.11H137.782C137.498 301.11 137.305 300.862 137.413 300.637L138.128 299.157C138.19 299.029 138.336 298.945 138.497 298.945Z" fill="url(#paint47_linear_299_13519)"/>
<path d="M159.876 298.945H177.532C177.787 298.945 177.977 299.147 177.922 299.361L177.545 300.841C177.505 300.998 177.343 301.11 177.155 301.11H159.313C159.042 301.11 158.85 300.882 158.934 300.661L159.496 299.182C159.551 299.041 159.703 298.945 159.876 298.945Z" fill="url(#paint48_linear_299_13519)"/>
<path d="M426.861 301.11H413.071C412.925 301.11 412.791 301.041 412.72 300.932L411.776 299.452C411.631 299.224 411.823 298.945 412.126 298.945H425.408C425.649 298.945 425.877 299.042 426.024 299.207L427.196 300.528C427.404 300.767 427.205 301.11 426.861 301.11Z" fill="url(#paint49_linear_299_13519)"/>
<path d="M409.432 301.11H395.501C395.354 301.11 395.22 301.041 395.15 300.932L394.206 299.452C394.06 299.224 394.253 298.945 394.556 298.945H408.487C408.633 298.945 408.767 299.014 408.838 299.123L409.782 300.603C409.927 300.831 409.735 301.11 409.432 301.11Z" fill="url(#paint50_linear_299_13519)"/>
<path d="M84.1753 296.686L83.0545 298.152C82.981 298.249 82.8549 298.307 82.7208 298.307H54.6985C54.2298 298.307 53.96 297.851 54.2362 297.526L55.1862 296.41C55.322 296.25 55.5375 296.156 55.7674 296.156H83.8416C84.1594 296.156 84.3494 296.459 84.1753 296.686Z" fill="url(#paint51_linear_299_13519)"/>
<path d="M105.321 296.67L104.336 298.136C104.265 298.242 104.133 298.307 103.991 298.307H86.5406C86.2237 298.307 86.0329 298.005 86.2061 297.778L87.3214 296.312C87.3948 296.215 87.521 296.156 87.6559 296.156H104.975C105.282 296.156 105.475 296.441 105.321 296.67Z" fill="url(#paint52_linear_299_13519)"/>
<path d="M126.273 296.656L125.391 298.122C125.323 298.235 125.186 298.307 125.037 298.307H107.673C107.366 298.307 107.174 298.022 107.327 297.793L108.313 296.328C108.384 296.221 108.515 296.156 108.658 296.156H125.918C126.217 296.156 126.409 296.428 126.273 296.656Z" fill="url(#paint53_linear_299_13519)"/>
<path d="M147.225 296.637L146.469 298.103C146.406 298.227 146.263 298.307 146.105 298.307H128.634C128.335 298.307 128.142 298.036 128.279 297.808L129.161 296.342C129.229 296.228 129.366 296.156 129.515 296.156H146.861C147.149 296.156 147.342 296.411 147.225 296.637Z" fill="url(#paint54_linear_299_13519)"/>
<path d="M168.474 296.582L168.049 298.048C168.005 298.2 167.845 298.307 167.662 298.307H149.595C149.306 298.307 149.113 298.052 149.23 297.826L149.986 296.36C150.05 296.236 150.193 296.156 150.351 296.156H168.086C168.346 296.157 168.536 296.366 168.474 296.582Z" fill="url(#paint55_linear_299_13519)"/>
<path d="M189.171 296.562L188.85 298.028C188.815 298.189 188.65 298.307 188.458 298.307H170.954C170.695 298.307 170.504 298.098 170.567 297.882L170.992 296.416C171.035 296.263 171.196 296.156 171.379 296.156H188.779C189.028 296.156 189.217 296.351 189.171 296.562Z" fill="url(#paint56_linear_299_13519)"/>
<path d="M210.296 296.524L210.171 297.99C210.156 298.169 209.982 298.307 209.772 298.307H191.704C191.454 298.307 191.265 298.112 191.312 297.902L191.633 296.436C191.668 296.274 191.833 296.156 192.025 296.156H209.897C210.13 296.157 210.313 296.326 210.296 296.524Z" fill="url(#paint57_linear_299_13519)"/>
<path d="M293.875 298.307H276.009C275.801 298.307 275.628 298.171 275.611 297.993L275.47 296.527C275.451 296.327 275.635 296.156 275.868 296.156H293.646C293.846 296.156 294.015 296.283 294.042 296.454L294.27 297.919C294.302 298.124 294.116 298.307 293.875 298.307Z" fill="url(#paint58_linear_299_13519)"/>
<path d="M315.004 298.307H297.097C296.896 298.307 296.728 298.18 296.701 298.01L296.472 296.544C296.44 296.338 296.626 296.156 296.868 296.156H314.52C314.699 296.156 314.856 296.258 314.904 296.406L315.389 297.871C315.46 298.09 315.268 298.307 315.004 298.307Z" fill="url(#paint59_linear_299_13519)"/>
<path d="M353.69 298.307H318.321C318.143 298.307 317.986 298.206 317.937 298.058L317.453 296.592C317.381 296.373 317.572 296.156 317.837 296.156H353.08C353.248 296.156 353.399 296.247 353.456 296.384L354.065 297.85C354.159 298.072 353.965 298.307 353.69 298.307Z" fill="url(#paint60_linear_299_13519)"/>
<path d="M143.381 294.015L142.963 294.92C142.796 295.282 142.388 295.52 141.935 295.52H125.025C124.73 295.52 124.537 295.256 124.665 295.029L125.197 294.083C125.382 293.755 125.769 293.547 126.193 293.547H143.01C143.291 293.547 143.485 293.791 143.381 294.015Z" fill="url(#paint61_linear_299_13519)"/>
<path d="M163.797 293.998L163.458 294.871C163.307 295.259 162.885 295.52 162.409 295.52H145.852C145.571 295.52 145.378 295.276 145.481 295.052L145.894 294.149C146.06 293.786 146.469 293.547 146.923 293.547H163.418C163.691 293.547 163.884 293.776 163.797 293.998Z" fill="url(#paint62_linear_299_13519)"/>
<path d="M184.667 293.956L184.482 294.755C184.38 295.2 183.926 295.52 183.397 295.52H166.29C166.018 295.52 165.825 295.291 165.911 295.069L166.251 294.196C166.402 293.808 166.824 293.547 167.3 293.547H184.275C184.526 293.547 184.715 293.744 184.667 293.956Z" fill="url(#paint63_linear_299_13519)"/>
<path d="M205.298 293.93L205.121 295.218C205.097 295.39 204.927 295.52 204.724 295.52H187.243C186.991 295.52 186.802 295.322 186.852 295.111L187.036 294.311C187.138 293.867 187.593 293.547 188.121 293.547H204.902C205.141 293.548 205.326 293.726 205.298 293.93Z" fill="url(#paint64_linear_299_13519)"/>
<path d="M226.058 293.896L226.027 295.184C226.022 295.37 225.845 295.52 225.628 295.52H207.939C207.7 295.52 207.514 295.341 207.542 295.137L207.719 293.849C207.743 293.676 207.913 293.547 208.116 293.547H225.659C225.884 293.547 226.063 293.704 226.058 293.896Z" fill="url(#paint65_linear_299_13519)"/>
<path d="M246.783 293.889V295.177C246.783 295.366 246.604 295.52 246.383 295.52H228.829C228.605 295.52 228.425 295.362 228.43 295.17L228.461 293.883C228.466 293.696 228.643 293.547 228.86 293.547H246.383C246.604 293.547 246.783 293.7 246.783 293.889Z" fill="url(#paint66_linear_299_13519)"/>
<path d="M267.12 295.52H249.571C249.351 295.52 249.172 295.366 249.172 295.177V293.889C249.172 293.7 249.351 293.547 249.571 293.547H267.068C267.283 293.547 267.459 293.693 267.467 293.878L267.519 295.166C267.527 295.359 267.346 295.52 267.12 295.52Z" fill="url(#paint67_linear_299_13519)"/>
<path d="M288.027 295.52H270.319C270.104 295.52 269.927 295.374 269.919 295.189L269.867 293.901C269.859 293.707 270.041 293.547 270.267 293.547H287.871C288.076 293.547 288.247 293.679 288.268 293.854L288.425 295.142C288.449 295.344 288.264 295.52 288.027 295.52Z" fill="url(#paint68_linear_299_13519)"/>
<path d="M308.715 295.52H291.227C291.023 295.52 290.851 295.387 290.831 295.213L290.674 293.925C290.649 293.723 290.835 293.547 291.071 293.547H307.781C308.285 293.547 308.726 293.84 308.851 294.259L309.1 295.092C309.167 295.309 308.976 295.52 308.715 295.52Z" fill="url(#paint69_linear_299_13519)"/>
<path d="M329.584 295.519H312.575C312.07 295.519 311.629 295.226 311.504 294.807L311.255 293.974C311.19 293.758 311.381 293.547 311.641 293.547H328.55C329.017 293.547 329.434 293.799 329.591 294.176L329.96 295.062C330.052 295.284 329.86 295.519 329.584 295.519Z" fill="url(#paint70_linear_299_13519)"/>
<path d="M352.486 295.52H333.472C333.005 295.52 332.589 295.268 332.431 294.89L332.063 294.004C331.97 293.781 332.162 293.547 332.439 293.547H351.394C351.842 293.547 352.245 293.778 352.416 294.133L352.856 295.046C352.965 295.272 352.771 295.52 352.486 295.52Z" fill="url(#paint71_linear_299_13519)"/>
<path d="M370.34 295.52H356.422C355.974 295.52 355.571 295.288 355.4 294.933L354.96 294.02C354.852 293.795 355.045 293.547 355.329 293.547H369.122C369.532 293.547 369.908 293.741 370.1 294.053L370.693 295.018C370.834 295.245 370.64 295.52 370.34 295.52Z" fill="url(#paint72_linear_299_13519)"/>
<path d="M388.155 295.52H374.391C373.981 295.52 373.605 295.325 373.413 295.013L372.82 294.049C372.68 293.821 372.873 293.547 373.173 293.547H386.837C387.221 293.547 387.578 293.718 387.779 293.999L388.495 294.998C388.659 295.226 388.468 295.52 388.155 295.52Z" fill="url(#paint73_linear_299_13519)"/>
<path d="M421.913 295.52H409.719C409.36 295.52 409.024 295.37 408.817 295.12L407.965 294.087C407.777 293.861 407.967 293.547 408.291 293.547H420.627C420.868 293.547 421.097 293.643 421.243 293.808L422.248 294.937C422.455 295.177 422.256 295.52 421.913 295.52Z" fill="url(#paint74_linear_299_13519)"/>
<path d="M69.3893 302.251L68.0648 304.176C67.993 304.28 67.8621 304.344 67.7207 304.344H49.6433C49.1499 304.344 48.8657 303.864 49.1555 303.522L50.4552 301.99C50.5909 301.83 50.8081 301.734 51.0396 301.734H69.0452C69.3541 301.734 69.5457 302.023 69.3893 302.251Z" fill="url(#paint75_linear_299_13519)"/>
<path d="M90.7838 302.25L89.4649 304.175C89.3931 304.28 89.2622 304.344 89.1209 304.344H71.4154C71.1065 304.344 70.9149 304.056 71.0713 303.828L72.3958 301.903C72.4676 301.799 72.5986 301.734 72.7399 301.734H90.4397C90.7487 301.734 90.9403 302.022 90.7838 302.25Z" fill="url(#paint76_linear_299_13519)"/>
<path d="M112.665 302.221L111.629 304.146C111.564 304.267 111.422 304.344 111.267 304.344H92.8139C92.5049 304.344 92.3133 304.056 92.4698 303.828L93.7942 301.903C93.8661 301.799 93.997 301.734 94.1383 301.734H112.303C112.594 301.734 112.787 301.993 112.665 302.221Z" fill="url(#paint77_linear_299_13519)"/>
<path d="M241.908 302.077V303.995C241.908 304.184 241.73 304.337 241.509 304.337L136.306 304.344C136.025 304.344 135.832 304.102 135.934 303.878L136.805 301.953C136.865 301.821 137.013 301.734 137.177 301.734H241.509C241.73 301.734 241.908 301.888 241.908 302.077Z" fill="url(#paint78_linear_299_13519)"/>
<path d="M262.766 304.337H244.704C244.484 304.337 244.305 304.184 244.305 303.995V302.077C244.305 301.888 244.484 301.734 244.704 301.734H262.701C262.918 301.734 263.094 301.882 263.101 302.067L263.165 303.985C263.172 304.178 262.991 304.337 262.766 304.337Z" fill="url(#paint79_linear_299_13519)"/>
<path d="M284.69 304.337H265.956C265.74 304.337 265.563 304.19 265.557 304.004L265.492 302.086C265.486 301.893 265.666 301.734 265.892 301.734H284.402C284.602 301.734 284.772 301.862 284.798 302.033L285.086 303.951C285.117 304.156 284.931 304.337 284.69 304.337Z" fill="url(#paint80_linear_299_13519)"/>
<path d="M306.233 304.337H287.914C287.714 304.337 287.544 304.209 287.518 304.039L287.23 302.121C287.199 301.916 287.385 301.734 287.626 301.734H305.74C305.928 301.734 306.09 301.846 306.13 302.003L306.624 303.921C306.679 304.135 306.489 304.337 306.233 304.337Z" fill="url(#paint81_linear_299_13519)"/>
<path d="M355.407 304.331H336.771C336.601 304.331 336.449 304.238 336.393 304.1L335.624 302.189C335.534 301.966 335.727 301.734 336.001 301.734H354.643C354.814 301.734 354.966 301.828 355.021 301.966L355.785 303.877C355.873 304.099 355.681 304.331 355.407 304.331Z" fill="url(#paint82_linear_299_13519)"/>
<path d="M393.789 304.331H358.787C358.616 304.331 358.465 304.238 358.409 304.1L357.639 302.189C357.55 301.966 357.742 301.734 358.017 301.734H392.417C392.556 301.734 392.685 301.796 392.757 301.897L394.13 303.809C394.293 304.037 394.102 304.331 393.789 304.331Z" fill="url(#paint83_linear_299_13519)"/>
<path d="M429.358 304.331H415.349C415.223 304.331 415.104 304.279 415.028 304.192L413.376 302.281C413.181 302.055 413.369 301.734 413.697 301.734H427.881C428.123 301.734 428.351 301.832 428.497 301.997L429.835 303.506C430.134 303.844 429.853 304.331 429.358 304.331Z" fill="url(#paint84_linear_299_13519)"/>
<path d="M405.443 295.52H392.295C391.911 295.52 391.554 295.348 391.353 295.068L390.638 294.069C390.474 293.841 390.666 293.547 390.978 293.547H404.015C404.373 293.547 404.71 293.696 404.917 293.947L405.769 294.979C405.956 295.206 405.767 295.52 405.443 295.52Z" fill="url(#paint85_linear_299_13519)"/>
<path d="M407.913 298.307H393.825C393.691 298.307 393.565 298.249 393.492 298.152L392.371 296.686C392.197 296.459 392.387 296.156 392.704 296.156H406.797C406.932 296.156 407.058 296.214 407.132 296.312L408.247 297.778C408.42 298.005 408.23 298.307 407.913 298.307Z" fill="url(#paint86_linear_299_13519)"/>
<path d="M411.373 304.331H397.358C397.219 304.331 397.091 304.269 397.018 304.167L395.646 302.256C395.482 302.028 395.673 301.734 395.986 301.734H409.733C409.86 301.734 409.979 301.786 410.055 301.874L411.695 303.785C411.889 304.011 411.7 304.331 411.373 304.331Z" fill="url(#paint87_linear_299_13519)"/>
<path d="M403.069 292.911H390.444C390.088 292.911 389.754 292.765 389.546 292.517L388.592 291.378C388.402 291.152 388.59 290.836 388.916 290.836H401.541C401.897 290.836 402.231 290.983 402.439 291.23L403.393 292.369C403.583 292.596 403.394 292.911 403.069 292.911Z" fill="url(#paint88_linear_299_13519)"/>
<path d="M276.956 292.911H259.821C259.601 292.911 259.422 292.758 259.422 292.569V291.178C259.422 290.989 259.601 290.836 259.821 290.836H276.786C276.99 290.836 277.161 290.968 277.182 291.142L277.353 292.533C277.379 292.735 277.194 292.911 276.956 292.911Z" fill="url(#paint89_linear_299_13519)"/>
<path d="M297.55 292.911H280.179C279.975 292.911 279.804 292.779 279.782 292.605L279.612 291.215C279.587 291.013 279.771 290.836 280.008 290.836H297.278C297.473 290.836 297.64 290.956 297.672 291.122L297.945 292.512C297.984 292.721 297.797 292.911 297.55 292.911Z" fill="url(#paint90_linear_299_13519)"/>
<path d="M318.133 292.911H300.789C300.595 292.911 300.428 292.791 300.396 292.626L300.123 291.235C300.082 291.026 300.27 290.836 300.516 290.836H317.673C317.852 290.836 318.009 290.937 318.057 291.085L318.517 292.475C318.59 292.694 318.398 292.911 318.133 292.911Z" fill="url(#paint91_linear_299_13519)"/>
<path d="M386.145 292.911H372.715C372.315 292.911 371.946 292.727 371.75 292.427L371.044 291.346C370.895 291.118 371.087 290.836 371.392 290.836H384.617C384.973 290.836 385.307 290.983 385.514 291.23L386.469 292.369C386.659 292.596 386.471 292.911 386.145 292.911Z" fill="url(#paint92_linear_299_13519)"/>
<path d="M368.701 292.911H355.269C354.837 292.911 354.444 292.696 354.264 292.359L353.709 291.322C353.587 291.095 353.781 290.836 354.071 290.836H367.306C367.689 290.836 368.045 291.007 368.246 291.286L369.04 292.389C369.205 292.617 369.014 292.911 368.701 292.911Z" fill="url(#paint93_linear_299_13519)"/>
<path d="M419.604 292.911H407.373C407.017 292.911 406.684 292.765 406.476 292.517L405.521 291.378C405.331 291.152 405.52 290.836 405.845 290.836H418.231C418.473 290.836 418.701 290.933 418.847 291.098L419.939 292.329C420.147 292.569 419.947 292.911 419.604 292.911Z" fill="url(#paint94_linear_299_13519)"/>
<path d="M98.3576 288.869L97.7197 289.791C97.5201 290.079 97.1593 290.256 96.7689 290.256H81.6421C81.3116 290.256 81.124 289.93 81.3252 289.705L82.2017 288.724C82.4109 288.489 82.735 288.352 83.0791 288.352H98.0143C98.3233 288.352 98.5157 288.641 98.3576 288.869Z" fill="url(#paint95_linear_299_13519)"/>
<path d="M136.67 288.78L136.439 289.545C136.313 289.963 135.873 290.256 135.369 290.256H120.017C119.73 290.256 119.537 290.004 119.65 289.778L120.074 288.927C120.248 288.578 120.648 288.352 121.091 288.352H136.283C136.545 288.352 136.736 288.563 136.67 288.78Z" fill="url(#paint96_linear_299_13519)"/>
<path d="M155.834 288.763L155.658 289.498C155.553 289.939 155.1 290.256 154.575 290.256H139.22C138.959 290.256 138.768 290.044 138.833 289.828L139.064 289.063C139.19 288.644 139.631 288.352 140.135 288.352H155.443C155.696 288.352 155.884 288.55 155.834 288.763Z" fill="url(#paint97_linear_299_13519)"/>
<path d="M194.083 288.717L194.034 289.369C193.996 289.868 193.513 290.256 192.93 290.256H177.852C177.615 290.256 177.431 290.08 177.455 289.878L177.538 289.202C177.597 288.719 178.071 288.352 178.638 288.352H193.685C193.915 288.352 194.097 288.519 194.083 288.717Z" fill="url(#paint98_linear_299_13519)"/>
<path d="M417.256 290.257H390.553C390.21 290.257 389.886 290.12 389.676 289.886L388.802 288.911C388.6 288.685 388.788 288.359 389.118 288.359H416.041C416.276 288.359 416.497 288.453 416.641 288.613L417.591 289.675C417.798 289.914 417.599 290.257 417.256 290.257Z" fill="url(#paint99_linear_299_13519)"/>
<path d="M386.172 290.257H371.046C370.655 290.257 370.294 290.08 370.094 289.792L369.462 288.877C369.305 288.648 369.497 288.359 369.806 288.359H384.742C385.086 288.359 385.411 288.497 385.62 288.731L386.489 289.706C386.69 289.931 386.503 290.257 386.172 290.257Z" fill="url(#paint100_linear_299_13519)"/>
<path d="M366.931 290.256H351.73C351.288 290.256 350.889 290.03 350.714 289.682L350.291 288.837C350.177 288.611 350.371 288.359 350.657 288.359H365.691C366.081 288.359 366.443 288.536 366.642 288.824L367.274 289.74C367.432 289.967 367.24 290.256 366.931 290.256Z" fill="url(#paint101_linear_299_13519)"/>
<path d="M347.784 290.257H332.435C331.93 290.257 331.489 289.964 331.364 289.544L331.138 288.787C331.073 288.57 331.264 288.359 331.524 288.359H346.711C347.153 288.359 347.552 288.585 347.727 288.933L348.15 289.779C348.264 290.005 348.07 290.257 347.784 290.257Z" fill="url(#paint102_linear_299_13519)"/>
<path d="M328.601 290.257H313.243C312.719 290.257 312.266 289.94 312.16 289.499L311.985 288.771C311.934 288.559 312.123 288.359 312.376 288.359H327.69C328.194 288.359 328.636 288.653 328.761 289.072L328.987 289.829C329.052 290.046 328.861 290.257 328.601 290.257Z" fill="url(#paint103_linear_299_13519)"/>
<path d="M309.41 290.257H293.805C293.238 290.257 292.763 289.888 292.705 289.403L292.627 288.736C292.603 288.534 292.788 288.359 293.024 288.359H308.547C309.073 288.359 309.526 288.678 309.631 289.12L309.802 289.847C309.851 290.058 309.663 290.257 309.41 290.257Z" fill="url(#paint104_linear_299_13519)"/>
<path d="M271.004 290.257H255.536C254.933 290.257 254.441 289.842 254.43 289.325C254.419 288.794 254.917 288.359 255.536 288.359H270.25C270.833 288.359 271.316 288.748 271.354 289.246L271.402 289.892C271.418 290.09 271.235 290.257 271.004 290.257Z" fill="url(#paint105_linear_299_13519)"/>
<path d="M250.931 290.255H235.934C235.323 290.255 234.828 289.83 234.828 289.306V289.3C234.828 288.776 235.323 288.352 235.935 288.352L250.931 288.358C251.534 288.358 252.026 288.772 252.036 289.289V289.29C252.047 289.82 251.548 290.255 250.931 290.255Z" fill="url(#paint106_linear_299_13519)"/>
<path d="M231.237 296.499V297.965C231.237 298.154 231.058 298.307 230.838 298.307H212.97C212.737 298.307 212.555 298.138 212.571 297.939L212.697 296.473C212.712 296.295 212.886 296.156 213.095 296.156H230.838C231.058 296.156 231.237 296.31 231.237 296.499Z" fill="url(#paint107_linear_299_13519)"/>
<path d="M252.018 296.499V297.965C252.018 298.154 251.84 298.307 251.619 298.307H234.032C233.812 298.307 233.633 298.154 233.633 297.965V296.499C233.633 296.31 233.812 296.156 234.032 296.156H251.619C251.84 296.156 252.018 296.31 252.018 296.499Z" fill="url(#paint108_linear_299_13519)"/>
<path d="M249.853 86.1975C250.281 86.1975 250.628 85.8997 250.628 85.5323C250.628 85.165 250.281 84.8672 249.853 84.8672C249.425 84.8672 249.078 85.165 249.078 85.5323C249.078 85.8997 249.425 86.1975 249.853 86.1975Z" fill="white" stroke="#0F0F0F" stroke-width="0.25" stroke-miterlimit="10"/>
<path d="M265.869 86.1975C266.297 86.1975 266.644 85.8997 266.644 85.5323C266.644 85.165 266.297 84.8672 265.869 84.8672C265.441 84.8672 265.094 85.165 265.094 85.5323C265.094 85.8997 265.441 86.1975 265.869 86.1975Z" fill="black"/>
<path d="M239.498 88.2691C241.262 88.2691 242.691 87.0423 242.691 85.5291C242.691 84.0158 241.262 82.7891 239.498 82.7891C237.734 82.7891 236.305 84.0158 236.305 85.5291C236.305 87.0423 237.734 88.2691 239.498 88.2691Z" fill="url(#paint109_linear_299_13519)"/>
<path d="M239.498 88.2691C241.262 88.2691 242.691 87.0423 242.691 85.5291C242.691 84.0158 241.262 82.7891 239.498 82.7891C237.734 82.7891 236.305 84.0158 236.305 85.5291C236.305 87.0423 237.734 88.2691 239.498 88.2691Z" stroke="#1C1C1C" stroke-width="0.25" stroke-miterlimit="10"/>
<path d="M239.494 87.6523C240.863 87.6523 241.973 86.7 241.973 85.5254C241.973 84.3507 240.863 83.3984 239.494 83.3984C238.125 83.3984 237.016 84.3507 237.016 85.5254C237.016 86.7 238.125 87.6523 239.494 87.6523Z" fill="#5E5E5E"/>
<path d="M239.499 87.3265C240.656 87.3265 241.593 86.5224 241.593 85.5304C241.593 84.5385 240.656 83.7344 239.499 83.7344C238.343 83.7344 237.406 84.5385 237.406 85.5304C237.406 86.5224 238.343 87.3265 239.499 87.3265Z" fill="#727272"/>
<path d="M239.496 87.0216C240.456 87.0216 241.234 86.3539 241.234 85.5303C241.234 84.7067 240.456 84.0391 239.496 84.0391C238.536 84.0391 237.758 84.7067 237.758 85.5303C237.758 86.3539 238.536 87.0216 239.496 87.0216Z" fill="#5E5E5E"/>
<path d="M239.496 86.4812C240.033 86.4812 240.468 86.1076 240.468 85.6468C240.468 85.186 240.033 84.8125 239.496 84.8125C238.959 84.8125 238.523 85.186 238.523 85.6468C238.523 86.1076 238.959 86.4812 239.496 86.4812Z" fill="#A5A5A5"/>
<path d="M239.496 86.364C240.033 86.364 240.468 85.9904 240.468 85.5296C240.468 85.0689 240.033 84.6953 239.496 84.6953C238.959 84.6953 238.523 85.0689 238.523 85.5296C238.523 85.9904 238.959 86.364 239.496 86.364Z" fill="url(#paint110_linear_299_13519)"/>
<path d="M120 154.756L169 135V201.732H120V154.756Z" fill="#002677"/>
<ellipse cx="144.5" cy="199.324" rx="24.5" ry="25.6829" fill="#002677"/>
<path d="M207.594 163.938C206.74 164.25 205.635 164.542 204.281 164.812C203.156 165.042 202.344 165.302 201.844 165.594C201.365 165.865 200.99 166.406 200.719 167.219C200.469 168.01 200.344 169.281 200.344 171.031V184.375C200.344 189.396 201.354 193.333 203.375 196.188C205.417 199.021 208.875 200.438 213.75 200.438C222.688 200.438 227.156 194.906 227.156 183.844V171.562C227.156 169.708 227.021 168.354 226.75 167.5C226.5 166.646 226.104 166.062 225.562 165.75C225.021 165.417 224.115 165.094 222.844 164.781C221.635 164.469 220.646 164.177 219.875 163.906V162.312H236.719L236.781 163.938C236.469 164.104 236.125 164.24 235.75 164.344C235.396 164.427 234.917 164.521 234.312 164.625C233.521 164.771 232.885 164.917 232.406 165.062C231.927 165.188 231.479 165.417 231.062 165.75C230.667 166.062 230.385 166.5 230.219 167.062C229.885 168.208 229.719 169.542 229.719 171.062C229.719 172.062 229.74 173.646 229.781 175.812C229.823 177.979 229.844 179.604 229.844 180.688C229.844 185.438 229.427 189.448 228.594 192.719C227.781 195.99 226.042 198.656 223.375 200.719C220.729 202.781 216.823 203.812 211.656 203.812C208.656 203.812 205.865 203.344 203.281 202.406C200.698 201.448 198.552 199.969 196.844 197.969C195.156 195.969 194.156 193.469 193.844 190.469C193.594 188.302 193.469 185.562 193.469 182.25C193.469 180.333 193.5 178.438 193.562 176.562C193.604 174.062 193.625 172.208 193.625 171C193.625 169.458 193.521 168.26 193.312 167.406C193.104 166.573 192.583 165.948 191.75 165.531C190.938 165.115 189.833 164.729 188.438 164.375C187.75 164.188 187.208 164.031 186.812 163.906L186.906 162.312H207.531L207.594 163.938ZM277.062 173.594C276.792 173.323 276.5 172.948 276.188 172.469C275.875 171.969 275.573 171.458 275.281 170.938C275.219 170.833 275.052 170.552 274.781 170.094C274.51 169.635 274.26 169.24 274.031 168.906C273.802 168.573 273.583 168.302 273.375 168.094C271.979 166.698 270.427 165.656 268.719 164.969C267.031 164.281 265.25 163.938 263.375 163.938C260.667 163.938 258.135 164.646 255.781 166.062C253.448 167.458 251.573 169.5 250.156 172.188C248.76 174.875 248.062 178.062 248.062 181.75C248.062 185.521 248.74 188.823 250.094 191.656C251.469 194.469 253.406 196.646 255.906 198.188C258.427 199.708 261.354 200.469 264.688 200.469C267.521 200.469 270.031 199.885 272.219 198.719C274.427 197.531 276.135 195.792 277.344 193.5L278.875 193.719L278.594 199.625C276.323 200.896 273.698 201.917 270.719 202.688C267.76 203.438 265 203.812 262.438 203.812C258.354 203.812 254.667 202.969 251.375 201.281C248.083 199.594 245.49 197.177 243.594 194.031C241.698 190.885 240.75 187.208 240.75 183C240.75 179.021 241.719 175.396 243.656 172.125C245.594 168.854 248.344 166.271 251.906 164.375C255.469 162.479 259.583 161.531 264.25 161.531C268.521 161.531 272.854 162.385 277.25 164.094L278.531 173.531L277.062 173.594ZM301.5 183.969C301.5 182.406 301.354 181.083 301.062 180C300.792 178.917 300.229 178.042 299.375 177.375C298.542 176.708 297.344 176.375 295.781 176.375C295.24 176.375 294.573 176.49 293.781 176.719C292.99 176.948 292.292 177.281 291.688 177.719C291.104 178.135 290.812 178.625 290.812 179.188C290.812 179.417 290.854 179.646 290.938 179.875C291.021 180.083 291.156 180.354 291.344 180.688C291.531 181 291.667 181.271 291.75 181.5C291.833 181.729 291.875 181.969 291.875 182.219C291.875 183.052 291.604 183.75 291.062 184.312C290.542 184.854 289.865 185.125 289.031 185.125C287.99 185.125 287.156 184.74 286.531 183.969C285.927 183.198 285.625 182.271 285.625 181.188C285.625 179.562 286.26 178.219 287.531 177.156C288.802 176.094 290.333 175.312 292.125 174.812C293.938 174.312 295.625 174.062 297.188 174.062C300.125 174.062 302.312 174.5 303.75 175.375C305.208 176.229 306.167 177.49 306.625 179.156C307.104 180.802 307.344 183.115 307.344 186.094L307.281 187.656C307.26 188.115 307.229 188.875 307.188 189.938C307.167 191 307.156 191.979 307.156 192.875C307.156 197.562 307.646 199.906 308.625 199.906C309.333 199.906 310.25 199.188 311.375 197.75L312.688 199.156C311.771 200.656 310.865 201.781 309.969 202.531C309.073 203.26 307.896 203.625 306.438 203.625C305.062 203.625 303.927 203.198 303.031 202.344C302.156 201.469 301.677 200.344 301.594 198.969C300.26 200.427 298.76 201.573 297.094 202.406C295.448 203.219 293.698 203.625 291.844 203.625C290.552 203.625 289.354 203.396 288.25 202.938C287.167 202.458 286.292 201.75 285.625 200.812C284.979 199.875 284.656 198.75 284.656 197.438C284.656 195.458 285.417 193.812 286.938 192.5C288.458 191.188 290.208 190.188 292.188 189.5C294.167 188.812 296.583 188.125 299.438 187.438C299.688 187.396 300.375 187.229 301.5 186.938V183.969ZM301.5 188.781C301.188 188.885 300.792 189.01 300.312 189.156C298.521 189.74 296.99 190.302 295.719 190.844C294.448 191.365 293.312 192.073 292.312 192.969C291.312 193.865 290.812 194.917 290.812 196.125C290.812 197.354 291.146 198.323 291.812 199.031C292.5 199.74 293.458 200.094 294.688 200.094C295.917 200.094 297.104 199.792 298.25 199.188C299.396 198.562 300.479 197.75 301.5 196.75V188.781ZM325.5 195.781C325.5 196.76 325.604 197.635 325.812 198.406C326.042 199.156 326.573 199.823 327.406 200.406C328.24 200.99 329.49 201.333 331.156 201.438L331.125 203H314.844C314.844 202.833 314.833 202.562 314.812 202.188C314.812 201.812 314.823 201.521 314.844 201.312L315.875 201.031C316.979 200.74 317.771 200.469 318.25 200.219C318.729 199.969 319.083 199.531 319.312 198.906C319.562 198.26 319.688 197.281 319.688 195.969V180.25C319.417 179.792 318.917 179.375 318.188 179C317.458 178.604 316.698 178.281 315.906 178.031C315.135 177.781 314.75 177.667 314.75 177.688L314.812 176.594L323.125 174.375H324.906L325.406 180.125C326.573 177.979 327.781 176.458 329.031 175.562C330.302 174.667 331.75 174.219 333.375 174.219C334.208 174.219 334.958 174.396 335.625 174.75C336.312 175.083 336.844 175.521 337.219 176.062C337.615 176.583 337.812 177.115 337.812 177.656C337.812 178.01 337.708 178.49 337.5 179.094C337.312 179.698 337.01 180.229 336.594 180.688C336.198 181.146 335.708 181.375 335.125 181.375C334.458 181.375 333.938 181.229 333.562 180.938C333.188 180.625 332.802 180.167 332.406 179.562C332.115 179.104 331.833 178.76 331.562 178.531C331.312 178.302 330.99 178.188 330.594 178.188C329.927 178.188 329.323 178.385 328.781 178.781C328.26 179.156 327.802 179.625 327.406 180.188C327.01 180.75 326.531 181.5 325.969 182.438L325.5 183.219V195.781ZM363.375 166.281C363.104 165.865 362.573 165.448 361.781 165.031C361.01 164.615 360.25 164.26 359.5 163.969C358.771 163.677 358.292 163.5 358.062 163.438L358.125 162.344L366.938 160.219L369.188 160V196.781C369.188 198.031 369.719 198.927 370.781 199.469C371.865 200.01 373.021 200.281 374.25 200.281V202L365.906 203.375H363.812L363.531 198.531C362.052 200.24 360.5 201.521 358.875 202.375C357.25 203.208 355.51 203.625 353.656 203.625C351.302 203.625 349.146 203.062 347.188 201.938C345.25 200.792 343.719 199.198 342.594 197.156C341.469 195.094 340.906 192.729 340.906 190.062C340.906 187 341.531 184.26 342.781 181.844C344.052 179.427 345.792 177.542 348 176.188C350.208 174.833 352.677 174.156 355.406 174.156C356.677 174.156 357.917 174.354 359.125 174.75C360.333 175.125 361.75 175.698 363.375 176.469V166.281ZM363.375 187.062C363.375 185.042 363.198 183.417 362.844 182.188C362.49 180.938 361.771 179.833 360.688 178.875C359.854 178.146 358.958 177.583 358 177.188C357.042 176.771 356.073 176.562 355.094 176.562C353.448 176.562 351.99 177.094 350.719 178.156C349.448 179.219 348.458 180.635 347.75 182.406C347.062 184.156 346.719 186.052 346.719 188.094C346.719 190.073 347.062 191.969 347.75 193.781C348.458 195.573 349.51 197.042 350.906 198.188C352.302 199.333 353.99 199.906 355.969 199.906C357.552 199.906 358.958 199.562 360.188 198.875C361.438 198.167 362.5 197.229 363.375 196.062V187.062Z" fill="#002677"/>
</g>
<defs>
<linearGradient id="paint0_linear_299_13519" x1="239.533" y1="326.65" x2="239.533" y2="332.72" gradientUnits="userSpaceOnUse">
<stop offset="0.0028" stop-color="#383838"/>
<stop offset="1" stop-color="#1D1D1D"/>
</linearGradient>
<linearGradient id="paint1_linear_299_13519" x1="13.7261" y1="323.774" x2="465.271" y2="323.774" gradientUnits="userSpaceOnUse">
<stop offset="0.0032" stop-color="#585858"/>
<stop offset="0.0082" stop-color="#B6B6B6"/>
<stop offset="0.0168" stop-color="#343434"/>
<stop offset="0.5193" stop-color="#686868"/>
<stop offset="0.9832" stop-color="#333333"/>
<stop offset="0.9931" stop-color="#BDBDBD"/>
<stop offset="0.9982" stop-color="#535353"/>
</linearGradient>
<linearGradient id="paint2_linear_299_13519" x1="13.7266" y1="303.627" x2="465.269" y2="303.627" gradientUnits="userSpaceOnUse">
<stop stop-color="#7F7F7F"/>
<stop offset="0.1453" stop-color="#353535"/>
<stop offset="0.5369" stop-color="#4D4D4D"/>
<stop offset="0.8533" stop-color="#363636"/>
<stop offset="1" stop-color="#7F7F7F"/>
</linearGradient>
<linearGradient id="paint3_linear_299_13519" x1="49.0938" y1="179.738" x2="429.899" y2="179.738" gradientUnits="userSpaceOnUse">
<stop stop-color="#414141"/>
<stop offset="1" stop-color="#282828"/>
</linearGradient>
<linearGradient id="paint4_linear_299_13519" x1="48.6946" y1="179.738" x2="430.298" y2="179.738" gradientUnits="userSpaceOnUse">
<stop stop-color="#2E2E2E"/>
<stop offset="1" stop-color="#141414"/>
</linearGradient>
<linearGradient id="paint5_linear_299_13519" x1="81.4802" y1="91.0422" x2="371.495" y2="312.155" gradientUnits="userSpaceOnUse">
<stop stop-color="#414141"/>
<stop offset="1" stop-color="#282828"/>
</linearGradient>
<linearGradient id="paint6_linear_299_13519" x1="51.8899" y1="179.74" x2="427.107" y2="179.74" gradientUnits="userSpaceOnUse">
<stop stop-color="#2E2E2E"/>
<stop offset="1" stop-color="#141414"/>
</linearGradient>
<linearGradient id="paint7_linear_299_13519" x1="239.498" y1="92.2051" x2="239.498" y2="271.066" gradientUnits="userSpaceOnUse">
<stop stop-color="#10110C"/>
<stop offset="0.3899" stop-color="#141510"/>
<stop offset="0.9997" stop-color="#5E5E5E"/>
</linearGradient>
<linearGradient id="paint8_linear_299_13519" x1="112.719" y1="313.324" x2="256.61" y2="313.324" gradientUnits="userSpaceOnUse">
<stop offset="0.0086" stop-color="#242424"/>
<stop offset="1" stop-color="#363636"/>
</linearGradient>
<linearGradient id="paint9_linear_299_13519" x1="321.201" y1="301.734" x2="321.201" y2="304.337" gradientUnits="userSpaceOnUse">
<stop stop-color="#424242"/>
<stop offset="0.9425" stop-color="#2B2B2B"/>
<stop offset="1" stop-color="#A8A8A8"/>
</linearGradient>
<linearGradient id="paint10_linear_299_13519" x1="124.273" y1="301.734" x2="124.273" y2="304.344" gradientUnits="userSpaceOnUse">
<stop stop-color="#424242"/>
<stop offset="0.9425" stop-color="#2B2B2B"/>
<stop offset="1" stop-color="#A8A8A8"/>
</linearGradient>
<linearGradient id="paint11_linear_299_13519" x1="189.639" y1="298.945" x2="189.639" y2="301.11" gradientUnits="userSpaceOnUse">
<stop stop-color="#424242"/>
<stop offset="0.9425" stop-color="#2B2B2B"/>
<stop offset="1" stop-color="#A8A8A8"/>
</linearGradient>
<linearGradient id="paint12_linear_299_13519" x1="210.91" y1="298.945" x2="210.91" y2="301.11" gradientUnits="userSpaceOnUse">
<stop stop-color="#424242"/>
<stop offset="0.9425" stop-color="#2B2B2B"/>
<stop offset="1" stop-color="#A8A8A8"/>
</linearGradient>
<linearGradient id="paint13_linear_299_13519" x1="232.197" y1="298.945" x2="232.197" y2="301.11" gradientUnits="userSpaceOnUse">
<stop stop-color="#424242"/>
<stop offset="0.9425" stop-color="#2B2B2B"/>
<stop offset="1" stop-color="#A8A8A8"/>
</linearGradient>
<linearGradient id="paint14_linear_299_13519" x1="253.534" y1="298.945" x2="253.534" y2="301.11" gradientUnits="userSpaceOnUse">
<stop stop-color="#424242"/>
<stop offset="0.9425" stop-color="#2B2B2B"/>
<stop offset="1" stop-color="#A8A8A8"/>
</linearGradient>
<linearGradient id="paint15_linear_299_13519" x1="274.841" y1="298.945" x2="274.841" y2="301.11" gradientUnits="userSpaceOnUse">
<stop stop-color="#424242"/>
<stop offset="0.9425" stop-color="#2B2B2B"/>
<stop offset="1" stop-color="#A8A8A8"/>
</linearGradient>
<linearGradient id="paint16_linear_299_13519" x1="296.127" y1="298.945" x2="296.127" y2="301.11" gradientUnits="userSpaceOnUse">
<stop stop-color="#424242"/>
<stop offset="0.9425" stop-color="#2B2B2B"/>
<stop offset="1" stop-color="#A8A8A8"/>
</linearGradient>
<linearGradient id="paint17_linear_299_13519" x1="331.689" y1="298.945" x2="331.689" y2="301.11" gradientUnits="userSpaceOnUse">
<stop stop-color="#424242"/>
<stop offset="0.9425" stop-color="#2B2B2B"/>
<stop offset="1" stop-color="#A8A8A8"/>
</linearGradient>
<linearGradient id="paint18_linear_299_13519" x1="365.824" y1="298.938" x2="365.824" y2="301.103" gradientUnits="userSpaceOnUse">
<stop stop-color="#424242"/>
<stop offset="0.9425" stop-color="#2B2B2B"/>
<stop offset="1" stop-color="#A8A8A8"/>
</linearGradient>
<linearGradient id="paint19_linear_299_13519" x1="384.117" y1="298.945" x2="384.117" y2="301.11" gradientUnits="userSpaceOnUse">
<stop stop-color="#424242"/>
<stop offset="0.9425" stop-color="#2B2B2B"/>
<stop offset="1" stop-color="#A8A8A8"/>
</linearGradient>
<linearGradient id="paint20_linear_299_13519" x1="382.38" y1="296.156" x2="382.38" y2="298.307" gradientUnits="userSpaceOnUse">
<stop stop-color="#424242"/>
<stop offset="0.9425" stop-color="#2B2B2B"/>
<stop offset="1" stop-color="#A8A8A8"/>
</linearGradient>
<linearGradient id="paint21_linear_299_13519" x1="364.265" y1="296.156" x2="364.265" y2="298.307" gradientUnits="userSpaceOnUse">
<stop stop-color="#424242"/>
<stop offset="0.9425" stop-color="#2B2B2B"/>
<stop offset="1" stop-color="#A8A8A8"/>
</linearGradient>
<linearGradient id="paint22_linear_299_13519" x1="417.509" y1="296.156" x2="417.509" y2="298.307" gradientUnits="userSpaceOnUse">
<stop stop-color="#424242"/>
<stop offset="0.9425" stop-color="#2B2B2B"/>
<stop offset="1" stop-color="#A8A8A8"/>
</linearGradient>
<linearGradient id="paint23_linear_299_13519" x1="263.809" y1="296.156" x2="263.809" y2="298.307" gradientUnits="userSpaceOnUse">
<stop stop-color="#424242"/>
<stop offset="0.9425" stop-color="#2B2B2B"/>
<stop offset="1" stop-color="#A8A8A8"/>
</linearGradient>
<linearGradient id="paint24_linear_299_13519" x1="68.7025" y1="293.547" x2="68.7025" y2="295.52" gradientUnits="userSpaceOnUse">
<stop stop-color="#424242"/>
<stop offset="0.9425" stop-color="#2B2B2B"/>
<stop offset="1" stop-color="#A8A8A8"/>
</linearGradient>
<linearGradient id="paint25_linear_299_13519" x1="92.3604" y1="293.547" x2="92.3604" y2="295.52" gradientUnits="userSpaceOnUse">
<stop stop-color="#424242"/>
<stop offset="0.9425" stop-color="#2B2B2B"/>
<stop offset="1" stop-color="#A8A8A8"/>
</linearGradient>
<linearGradient id="paint26_linear_299_13519" x1="113.2" y1="293.547" x2="113.2" y2="295.52" gradientUnits="userSpaceOnUse">
<stop stop-color="#424242"/>
<stop offset="0.9425" stop-color="#2B2B2B"/>
<stop offset="1" stop-color="#A8A8A8"/>
</linearGradient>
<linearGradient id="paint27_linear_299_13519" x1="65.8652" y1="290.836" x2="65.8652" y2="292.911" gradientUnits="userSpaceOnUse">
<stop stop-color="#424242"/>
<stop offset="0.9425" stop-color="#2B2B2B"/>
<stop offset="1" stop-color="#A8A8A8"/>
</linearGradient>
<linearGradient id="paint28_linear_299_13519" x1="84.2204" y1="290.836" x2="84.2204" y2="292.912" gradientUnits="userSpaceOnUse">
<stop stop-color="#424242"/>
<stop offset="0.9425" stop-color="#2B2B2B"/>
<stop offset="1" stop-color="#A8A8A8"/>
</linearGradient>
<linearGradient id="paint29_linear_299_13519" x1="104.571" y1="290.836" x2="104.571" y2="292.911" gradientUnits="userSpaceOnUse">
<stop stop-color="#424242"/>
<stop offset="0.9425" stop-color="#2B2B2B"/>
<stop offset="1" stop-color="#A8A8A8"/>
</linearGradient>
<linearGradient id="paint30_linear_299_13519" x1="124.944" y1="290.836" x2="124.944" y2="292.911" gradientUnits="userSpaceOnUse">
<stop stop-color="#424242"/>
<stop offset="0.9425" stop-color="#2B2B2B"/>
<stop offset="1" stop-color="#A8A8A8"/>
</linearGradient>
<linearGradient id="paint31_linear_299_13519" x1="145.535" y1="290.836" x2="145.535" y2="292.912" gradientUnits="userSpaceOnUse">
<stop stop-color="#424242"/>
<stop offset="0.9425" stop-color="#2B2B2B"/>
<stop offset="1" stop-color="#A8A8A8"/>
</linearGradient>
<linearGradient id="paint32_linear_299_13519" x1="165.958" y1="290.836" x2="165.958" y2="292.911" gradientUnits="userSpaceOnUse">
<stop stop-color="#424242"/>
<stop offset="0.9425" stop-color="#2B2B2B"/>
<stop offset="1" stop-color="#A8A8A8"/>
</linearGradient>
<linearGradient id="paint33_linear_299_13519" x1="186.306" y1="290.836" x2="186.306" y2="292.911" gradientUnits="userSpaceOnUse">
<stop stop-color="#424242"/>
<stop offset="0.9425" stop-color="#2B2B2B"/>
<stop offset="1" stop-color="#A8A8A8"/>
</linearGradient>
<linearGradient id="paint34_linear_299_13519" x1="206.971" y1="290.836" x2="206.971" y2="292.911" gradientUnits="userSpaceOnUse">
<stop stop-color="#424242"/>
<stop offset="0.9425" stop-color="#2B2B2B"/>
<stop offset="1" stop-color="#A8A8A8"/>
</linearGradient>
<linearGradient id="paint35_linear_299_13519" x1="227.556" y1="290.836" x2="227.556" y2="292.911" gradientUnits="userSpaceOnUse">
<stop stop-color="#424242"/>
<stop offset="0.9425" stop-color="#2B2B2B"/>
<stop offset="1" stop-color="#A8A8A8"/>
</linearGradient>
<linearGradient id="paint36_linear_299_13519" x1="247.979" y1="290.836" x2="247.979" y2="292.911" gradientUnits="userSpaceOnUse">
<stop stop-color="#424242"/>
<stop offset="0.9425" stop-color="#2B2B2B"/>
<stop offset="1" stop-color="#A8A8A8"/>
</linearGradient>
<linearGradient id="paint37_linear_299_13519" x1="336.132" y1="290.836" x2="336.132" y2="292.911" gradientUnits="userSpaceOnUse">
<stop stop-color="#424242"/>
<stop offset="0.9425" stop-color="#2B2B2B"/>
<stop offset="1" stop-color="#A8A8A8"/>
</linearGradient>
<linearGradient id="paint38_linear_299_13519" x1="70.0241" y1="288.351" x2="70.0241" y2="290.256" gradientUnits="userSpaceOnUse">
<stop stop-color="#424242"/>
<stop offset="0.9425" stop-color="#2B2B2B"/>
<stop offset="1" stop-color="#A8A8A8"/>
</linearGradient>
<linearGradient id="paint39_linear_299_13519" x1="109.02" y1="288.351" x2="109.02" y2="290.256" gradientUnits="userSpaceOnUse">
<stop stop-color="#424242"/>
<stop offset="0.9425" stop-color="#2B2B2B"/>
<stop offset="1" stop-color="#A8A8A8"/>
</linearGradient>
<linearGradient id="paint40_linear_299_13519" x1="166.6" y1="288.351" x2="166.6" y2="290.256" gradientUnits="userSpaceOnUse">
<stop stop-color="#424242"/>
<stop offset="0.9425" stop-color="#2B2B2B"/>
<stop offset="1" stop-color="#A8A8A8"/>
</linearGradient>
<linearGradient id="paint41_linear_299_13519" x1="204.887" y1="288.351" x2="204.887" y2="290.256" gradientUnits="userSpaceOnUse">
<stop stop-color="#424242"/>
<stop offset="0.9425" stop-color="#2B2B2B"/>
<stop offset="1" stop-color="#A8A8A8"/>
</linearGradient>
<linearGradient id="paint42_linear_299_13519" x1="224.104" y1="288.351" x2="224.104" y2="290.256" gradientUnits="userSpaceOnUse">
<stop stop-color="#424242"/>
<stop offset="0.9425" stop-color="#2B2B2B"/>
<stop offset="1" stop-color="#A8A8A8"/>
</linearGradient>
<linearGradient id="paint43_linear_299_13519" x1="282.034" y1="288.359" x2="282.034" y2="290.256" gradientUnits="userSpaceOnUse">
<stop stop-color="#424242"/>
<stop offset="0.9425" stop-color="#2B2B2B"/>
<stop offset="1" stop-color="#A8A8A8"/>
</linearGradient>
<linearGradient id="paint44_linear_299_13519" x1="125.808" y1="298.945" x2="125.808" y2="301.11" gradientUnits="userSpaceOnUse">
<stop stop-color="#424242"/>
<stop offset="0.9425" stop-color="#2B2B2B"/>
<stop offset="1" stop-color="#A8A8A8"/>
</linearGradient>
<linearGradient id="paint45_linear_299_13519" x1="72.2868" y1="298.945" x2="72.2868" y2="301.11" gradientUnits="userSpaceOnUse">
<stop stop-color="#424242"/>
<stop offset="0.9425" stop-color="#2B2B2B"/>
<stop offset="1" stop-color="#A8A8A8"/>
</linearGradient>
<linearGradient id="paint46_linear_299_13519" x1="104.495" y1="298.945" x2="104.495" y2="301.11" gradientUnits="userSpaceOnUse">
<stop stop-color="#424242"/>
<stop offset="0.9425" stop-color="#2B2B2B"/>
<stop offset="1" stop-color="#A8A8A8"/>
</linearGradient>
<linearGradient id="paint47_linear_299_13519" x1="147.151" y1="298.945" x2="147.151" y2="301.11" gradientUnits="userSpaceOnUse">
<stop stop-color="#424242"/>
<stop offset="0.9425" stop-color="#2B2B2B"/>
<stop offset="1" stop-color="#A8A8A8"/>
</linearGradient>
<linearGradient id="paint48_linear_299_13519" x1="168.423" y1="298.945" x2="168.423" y2="301.11" gradientUnits="userSpaceOnUse">
<stop stop-color="#424242"/>
<stop offset="0.9425" stop-color="#2B2B2B"/>
<stop offset="1" stop-color="#A8A8A8"/>
</linearGradient>
<linearGradient id="paint49_linear_299_13519" x1="419.504" y1="298.945" x2="419.504" y2="301.11" gradientUnits="userSpaceOnUse">
<stop stop-color="#424242"/>
<stop offset="0.9425" stop-color="#2B2B2B"/>
<stop offset="1" stop-color="#A8A8A8"/>
</linearGradient>
<linearGradient id="paint50_linear_299_13519" x1="401.994" y1="298.945" x2="401.994" y2="301.11" gradientUnits="userSpaceOnUse">
<stop stop-color="#424242"/>
<stop offset="0.9425" stop-color="#2B2B2B"/>
<stop offset="1" stop-color="#A8A8A8"/>
</linearGradient>
<linearGradient id="paint51_linear_299_13519" x1="69.1833" y1="296.156" x2="69.1833" y2="298.307" gradientUnits="userSpaceOnUse">
<stop stop-color="#424242"/>
<stop offset="0.9425" stop-color="#2B2B2B"/>
<stop offset="1" stop-color="#A8A8A8"/>
</linearGradient>
<linearGradient id="paint52_linear_299_13519" x1="95.7582" y1="296.156" x2="95.7582" y2="298.307" gradientUnits="userSpaceOnUse">
<stop stop-color="#424242"/>
<stop offset="0.9425" stop-color="#2B2B2B"/>
<stop offset="1" stop-color="#A8A8A8"/>
</linearGradient>
<linearGradient id="paint53_linear_299_13519" x1="116.795" y1="296.156" x2="116.795" y2="298.307" gradientUnits="userSpaceOnUse">
<stop stop-color="#424242"/>
<stop offset="0.9425" stop-color="#2B2B2B"/>
<stop offset="1" stop-color="#A8A8A8"/>
</linearGradient>
<linearGradient id="paint54_linear_299_13519" x1="137.747" y1="296.156" x2="137.747" y2="298.307" gradientUnits="userSpaceOnUse">
<stop stop-color="#424242"/>
<stop offset="0.9425" stop-color="#2B2B2B"/>
<stop offset="1" stop-color="#A8A8A8"/>
</linearGradient>
<linearGradient id="paint55_linear_299_13519" x1="158.841" y1="296.157" x2="158.841" y2="298.308" gradientUnits="userSpaceOnUse">
<stop stop-color="#424242"/>
<stop offset="0.9425" stop-color="#2B2B2B"/>
<stop offset="1" stop-color="#A8A8A8"/>
</linearGradient>
<linearGradient id="paint56_linear_299_13519" x1="179.866" y1="296.156" x2="179.866" y2="298.307" gradientUnits="userSpaceOnUse">
<stop stop-color="#424242"/>
<stop offset="0.9425" stop-color="#2B2B2B"/>
<stop offset="1" stop-color="#A8A8A8"/>
</linearGradient>
<linearGradient id="paint57_linear_299_13519" x1="200.801" y1="296.157" x2="200.801" y2="298.308" gradientUnits="userSpaceOnUse">
<stop stop-color="#424242"/>
<stop offset="0.9425" stop-color="#2B2B2B"/>
<stop offset="1" stop-color="#A8A8A8"/>
</linearGradient>
<linearGradient id="paint58_linear_299_13519" x1="284.871" y1="296.156" x2="284.871" y2="298.307" gradientUnits="userSpaceOnUse">
<stop stop-color="#424242"/>
<stop offset="0.9425" stop-color="#2B2B2B"/>
<stop offset="1" stop-color="#A8A8A8"/>
</linearGradient>
<linearGradient id="paint59_linear_299_13519" x1="305.936" y1="296.156" x2="305.936" y2="298.307" gradientUnits="userSpaceOnUse">
<stop stop-color="#424242"/>
<stop offset="0.9425" stop-color="#2B2B2B"/>
<stop offset="1" stop-color="#A8A8A8"/>
</linearGradient>
<linearGradient id="paint60_linear_299_13519" x1="335.763" y1="296.156" x2="335.763" y2="298.307" gradientUnits="userSpaceOnUse">
<stop stop-color="#424242"/>
<stop offset="0.9425" stop-color="#2B2B2B"/>
<stop offset="1" stop-color="#A8A8A8"/>
</linearGradient>
<linearGradient id="paint61_linear_299_13519" x1="134.017" y1="293.547" x2="134.017" y2="295.52" gradientUnits="userSpaceOnUse">
<stop stop-color="#424242"/>
<stop offset="0.9425" stop-color="#2B2B2B"/>
<stop offset="1" stop-color="#A8A8A8"/>
</linearGradient>
<linearGradient id="paint62_linear_299_13519" x1="154.635" y1="293.547" x2="154.635" y2="295.52" gradientUnits="userSpaceOnUse">
<stop stop-color="#424242"/>
<stop offset="0.9425" stop-color="#2B2B2B"/>
<stop offset="1" stop-color="#A8A8A8"/>
</linearGradient>
<linearGradient id="paint63_linear_299_13519" x1="175.283" y1="293.547" x2="175.283" y2="295.52" gradientUnits="userSpaceOnUse">
<stop stop-color="#424242"/>
<stop offset="0.9425" stop-color="#2B2B2B"/>
<stop offset="1" stop-color="#A8A8A8"/>
</linearGradient>
<linearGradient id="paint64_linear_299_13519" x1="196.072" y1="293.547" x2="196.072" y2="295.52" gradientUnits="userSpaceOnUse">
<stop stop-color="#424242"/>
<stop offset="0.9425" stop-color="#2B2B2B"/>
<stop offset="1" stop-color="#A8A8A8"/>
</linearGradient>
<linearGradient id="paint65_linear_299_13519" x1="216.799" y1="293.547" x2="216.799" y2="295.52" gradientUnits="userSpaceOnUse">
<stop stop-color="#424242"/>
<stop offset="0.9425" stop-color="#2B2B2B"/>
<stop offset="1" stop-color="#A8A8A8"/>
</linearGradient>
<linearGradient id="paint66_linear_299_13519" x1="237.606" y1="293.547" x2="237.606" y2="295.52" gradientUnits="userSpaceOnUse">
<stop stop-color="#424242"/>
<stop offset="0.9425" stop-color="#2B2B2B"/>
<stop offset="1" stop-color="#A8A8A8"/>
</linearGradient>
<linearGradient id="paint67_linear_299_13519" x1="258.346" y1="293.547" x2="258.346" y2="295.52" gradientUnits="userSpaceOnUse">
<stop stop-color="#424242"/>
<stop offset="0.9425" stop-color="#2B2B2B"/>
<stop offset="1" stop-color="#A8A8A8"/>
</linearGradient>
<linearGradient id="paint68_linear_299_13519" x1="279.147" y1="293.547" x2="279.147" y2="295.52" gradientUnits="userSpaceOnUse">
<stop stop-color="#424242"/>
<stop offset="0.9425" stop-color="#2B2B2B"/>
<stop offset="1" stop-color="#A8A8A8"/>
</linearGradient>
<linearGradient id="paint69_linear_299_13519" x1="299.893" y1="293.547" x2="299.893" y2="295.52" gradientUnits="userSpaceOnUse">
<stop stop-color="#424242"/>
<stop offset="0.9425" stop-color="#2B2B2B"/>
<stop offset="1" stop-color="#A8A8A8"/>
</linearGradient>
<linearGradient id="paint70_linear_299_13519" x1="320.613" y1="293.546" x2="320.613" y2="295.519" gradientUnits="userSpaceOnUse">
<stop stop-color="#424242"/>
<stop offset="0.9425" stop-color="#2B2B2B"/>
<stop offset="1" stop-color="#A8A8A8"/>
</linearGradient>
<linearGradient id="paint71_linear_299_13519" x1="342.463" y1="293.547" x2="342.463" y2="295.52" gradientUnits="userSpaceOnUse">
<stop stop-color="#424242"/>
<stop offset="0.9425" stop-color="#2B2B2B"/>
<stop offset="1" stop-color="#A8A8A8"/>
</linearGradient>
<linearGradient id="paint72_linear_299_13519" x1="362.835" y1="293.547" x2="362.835" y2="295.52" gradientUnits="userSpaceOnUse">
<stop stop-color="#424242"/>
<stop offset="0.9425" stop-color="#2B2B2B"/>
<stop offset="1" stop-color="#A8A8A8"/>
</linearGradient>
<linearGradient id="paint73_linear_299_13519" x1="380.664" y1="293.547" x2="380.664" y2="295.52" gradientUnits="userSpaceOnUse">
<stop stop-color="#424242"/>
<stop offset="0.9425" stop-color="#2B2B2B"/>
<stop offset="1" stop-color="#A8A8A8"/>
</linearGradient>
<linearGradient id="paint74_linear_299_13519" x1="415.112" y1="293.547" x2="415.112" y2="295.52" gradientUnits="userSpaceOnUse">
<stop stop-color="#424242"/>
<stop offset="0.9425" stop-color="#2B2B2B"/>
<stop offset="1" stop-color="#A8A8A8"/>
</linearGradient>
<linearGradient id="paint75_linear_299_13519" x1="59.242" y1="301.734" x2="59.242" y2="304.344" gradientUnits="userSpaceOnUse">
<stop stop-color="#424242"/>
<stop offset="0.9425" stop-color="#2B2B2B"/>
<stop offset="1" stop-color="#A8A8A8"/>
</linearGradient>
<linearGradient id="paint76_linear_299_13519" x1="80.9276" y1="301.734" x2="80.9276" y2="304.344" gradientUnits="userSpaceOnUse">
<stop stop-color="#424242"/>
<stop offset="0.9425" stop-color="#2B2B2B"/>
<stop offset="1" stop-color="#A8A8A8"/>
</linearGradient>
<linearGradient id="paint77_linear_299_13519" x1="102.558" y1="301.734" x2="102.558" y2="304.344" gradientUnits="userSpaceOnUse">
<stop stop-color="#424242"/>
<stop offset="0.9425" stop-color="#2B2B2B"/>
<stop offset="1" stop-color="#A8A8A8"/>
</linearGradient>
<linearGradient id="paint78_linear_299_13519" x1="188.907" y1="301.734" x2="188.907" y2="304.344" gradientUnits="userSpaceOnUse">
<stop stop-color="#424242"/>
<stop offset="0.9425" stop-color="#2B2B2B"/>
<stop offset="1" stop-color="#A8A8A8"/>
</linearGradient>
<linearGradient id="paint79_linear_299_13519" x1="253.735" y1="301.734" x2="253.735" y2="304.337" gradientUnits="userSpaceOnUse">
<stop stop-color="#424242"/>
<stop offset="0.9425" stop-color="#2B2B2B"/>
<stop offset="1" stop-color="#A8A8A8"/>
</linearGradient>
<linearGradient id="paint80_linear_299_13519" x1="275.291" y1="301.734" x2="275.291" y2="304.337" gradientUnits="userSpaceOnUse">
<stop stop-color="#424242"/>
<stop offset="0.9425" stop-color="#2B2B2B"/>
<stop offset="1" stop-color="#A8A8A8"/>
</linearGradient>
<linearGradient id="paint81_linear_299_13519" x1="296.93" y1="301.734" x2="296.93" y2="304.337" gradientUnits="userSpaceOnUse">
<stop stop-color="#424242"/>
<stop offset="0.9425" stop-color="#2B2B2B"/>
<stop offset="1" stop-color="#A8A8A8"/>
</linearGradient>
<linearGradient id="paint82_linear_299_13519" x1="345.704" y1="301.734" x2="345.704" y2="304.33" gradientUnits="userSpaceOnUse">
<stop stop-color="#424242"/>
<stop offset="0.9425" stop-color="#2B2B2B"/>
<stop offset="1" stop-color="#A8A8A8"/>
</linearGradient>
<linearGradient id="paint83_linear_299_13519" x1="375.904" y1="301.734" x2="375.904" y2="304.33" gradientUnits="userSpaceOnUse">
<stop stop-color="#424242"/>
<stop offset="0.9425" stop-color="#2B2B2B"/>
<stop offset="1" stop-color="#A8A8A8"/>
</linearGradient>
<linearGradient id="paint84_linear_299_13519" x1="421.628" y1="301.734" x2="421.628" y2="304.33" gradientUnits="userSpaceOnUse">
<stop stop-color="#424242"/>
<stop offset="0.9425" stop-color="#2B2B2B"/>
<stop offset="1" stop-color="#A8A8A8"/>
</linearGradient>
<linearGradient id="paint85_linear_299_13519" x1="398.211" y1="293.547" x2="398.211" y2="295.52" gradientUnits="userSpaceOnUse">
<stop stop-color="#424242"/>
<stop offset="0.9425" stop-color="#2B2B2B"/>
<stop offset="1" stop-color="#A8A8A8"/>
</linearGradient>
<linearGradient id="paint86_linear_299_13519" x1="400.309" y1="296.156" x2="400.309" y2="298.307" gradientUnits="userSpaceOnUse">
<stop stop-color="#424242"/>
<stop offset="0.9425" stop-color="#2B2B2B"/>
<stop offset="1" stop-color="#A8A8A8"/>
</linearGradient>
<linearGradient id="paint87_linear_299_13519" x1="403.679" y1="301.734" x2="403.679" y2="304.33" gradientUnits="userSpaceOnUse">
<stop stop-color="#424242"/>
<stop offset="0.9425" stop-color="#2B2B2B"/>
<stop offset="1" stop-color="#A8A8A8"/>
</linearGradient>
<linearGradient id="paint88_linear_299_13519" x1="395.992" y1="290.836" x2="395.992" y2="292.911" gradientUnits="userSpaceOnUse">
<stop stop-color="#424242"/>
<stop offset="0.9425" stop-color="#2B2B2B"/>
<stop offset="1" stop-color="#A8A8A8"/>
</linearGradient>
<linearGradient id="paint89_linear_299_13519" x1="268.389" y1="290.836" x2="268.389" y2="292.911" gradientUnits="userSpaceOnUse">
<stop stop-color="#424242"/>
<stop offset="0.9425" stop-color="#2B2B2B"/>
<stop offset="1" stop-color="#A8A8A8"/>
</linearGradient>
<linearGradient id="paint90_linear_299_13519" x1="288.779" y1="290.836" x2="288.779" y2="292.911" gradientUnits="userSpaceOnUse">
<stop stop-color="#424242"/>
<stop offset="0.9425" stop-color="#2B2B2B"/>
<stop offset="1" stop-color="#A8A8A8"/>
</linearGradient>
<linearGradient id="paint91_linear_299_13519" x1="309.325" y1="290.836" x2="309.325" y2="292.911" gradientUnits="userSpaceOnUse">
<stop stop-color="#424242"/>
<stop offset="0.9425" stop-color="#2B2B2B"/>
<stop offset="1" stop-color="#A8A8A8"/>
</linearGradient>
<linearGradient id="paint92_linear_299_13519" x1="378.769" y1="290.836" x2="378.769" y2="292.911" gradientUnits="userSpaceOnUse">
<stop stop-color="#424242"/>
<stop offset="0.9425" stop-color="#2B2B2B"/>
<stop offset="1" stop-color="#A8A8A8"/>
</linearGradient>
<linearGradient id="paint93_linear_299_13519" x1="361.386" y1="290.836" x2="361.386" y2="292.911" gradientUnits="userSpaceOnUse">
<stop stop-color="#424242"/>
<stop offset="0.9425" stop-color="#2B2B2B"/>
<stop offset="1" stop-color="#A8A8A8"/>
</linearGradient>
<linearGradient id="paint94_linear_299_13519" x1="412.734" y1="290.836" x2="412.734" y2="292.911" gradientUnits="userSpaceOnUse">
<stop stop-color="#424242"/>
<stop offset="0.9425" stop-color="#2B2B2B"/>
<stop offset="1" stop-color="#A8A8A8"/>
</linearGradient>
<linearGradient id="paint95_linear_299_13519" x1="89.8276" y1="288.351" x2="89.8276" y2="290.256" gradientUnits="userSpaceOnUse">
<stop stop-color="#424242"/>
<stop offset="0.9425" stop-color="#2B2B2B"/>
<stop offset="1" stop-color="#A8A8A8"/>
</linearGradient>
<linearGradient id="paint96_linear_299_13519" x1="128.15" y1="288.351" x2="128.15" y2="290.256" gradientUnits="userSpaceOnUse">
<stop stop-color="#424242"/>
<stop offset="0.9425" stop-color="#2B2B2B"/>
<stop offset="1" stop-color="#A8A8A8"/>
</linearGradient>
<linearGradient id="paint97_linear_299_13519" x1="147.331" y1="288.351" x2="147.331" y2="290.256" gradientUnits="userSpaceOnUse">
<stop stop-color="#424242"/>
<stop offset="0.9425" stop-color="#2B2B2B"/>
<stop offset="1" stop-color="#A8A8A8"/>
</linearGradient>
<linearGradient id="paint98_linear_299_13519" x1="185.768" y1="288.352" x2="185.768" y2="290.256" gradientUnits="userSpaceOnUse">
<stop stop-color="#424242"/>
<stop offset="0.9425" stop-color="#2B2B2B"/>
<stop offset="1" stop-color="#A8A8A8"/>
</linearGradient>
<linearGradient id="paint99_linear_299_13519" x1="403.197" y1="288.359" x2="403.197" y2="290.257" gradientUnits="userSpaceOnUse">
<stop stop-color="#424242"/>
<stop offset="0.9425" stop-color="#2B2B2B"/>
<stop offset="1" stop-color="#A8A8A8"/>
</linearGradient>
<linearGradient id="paint100_linear_299_13519" x1="377.989" y1="288.359" x2="377.989" y2="290.257" gradientUnits="userSpaceOnUse">
<stop stop-color="#424242"/>
<stop offset="0.9425" stop-color="#2B2B2B"/>
<stop offset="1" stop-color="#A8A8A8"/>
</linearGradient>
<linearGradient id="paint101_linear_299_13519" x1="358.795" y1="288.359" x2="358.795" y2="290.256" gradientUnits="userSpaceOnUse">
<stop stop-color="#424242"/>
<stop offset="0.9425" stop-color="#2B2B2B"/>
<stop offset="1" stop-color="#A8A8A8"/>
</linearGradient>
<linearGradient id="paint102_linear_299_13519" x1="339.654" y1="288.359" x2="339.654" y2="290.257" gradientUnits="userSpaceOnUse">
<stop stop-color="#424242"/>
<stop offset="0.9425" stop-color="#2B2B2B"/>
<stop offset="1" stop-color="#A8A8A8"/>
</linearGradient>
<linearGradient id="paint103_linear_299_13519" x1="320.488" y1="288.359" x2="320.488" y2="290.257" gradientUnits="userSpaceOnUse">
<stop stop-color="#424242"/>
<stop offset="0.9425" stop-color="#2B2B2B"/>
<stop offset="1" stop-color="#A8A8A8"/>
</linearGradient>
<linearGradient id="paint104_linear_299_13519" x1="301.217" y1="288.359" x2="301.217" y2="290.257" gradientUnits="userSpaceOnUse">
<stop stop-color="#424242"/>
<stop offset="0.9425" stop-color="#2B2B2B"/>
<stop offset="1" stop-color="#A8A8A8"/>
</linearGradient>
<linearGradient id="paint105_linear_299_13519" x1="262.917" y1="288.359" x2="262.917" y2="290.257" gradientUnits="userSpaceOnUse">
<stop stop-color="#424242"/>
<stop offset="0.9425" stop-color="#2B2B2B"/>
<stop offset="1" stop-color="#A8A8A8"/>
</linearGradient>
<linearGradient id="paint106_linear_299_13519" x1="243.432" y1="288.351" x2="243.432" y2="290.255" gradientUnits="userSpaceOnUse">
<stop stop-color="#424242"/>
<stop offset="0.9425" stop-color="#2B2B2B"/>
<stop offset="1" stop-color="#A8A8A8"/>
</linearGradient>
<linearGradient id="paint107_linear_299_13519" x1="221.904" y1="296.156" x2="221.904" y2="298.307" gradientUnits="userSpaceOnUse">
<stop stop-color="#424242"/>
<stop offset="0.9425" stop-color="#2B2B2B"/>
<stop offset="1" stop-color="#A8A8A8"/>
</linearGradient>
<linearGradient id="paint108_linear_299_13519" x1="242.826" y1="296.156" x2="242.826" y2="298.307" gradientUnits="userSpaceOnUse">
<stop stop-color="#424242"/>
<stop offset="0.9425" stop-color="#2B2B2B"/>
<stop offset="1" stop-color="#A8A8A8"/>
</linearGradient>
<linearGradient id="paint109_linear_299_13519" x1="239.498" y1="87.9568" x2="239.498" y2="82.4835" gradientUnits="userSpaceOnUse">
<stop stop-color="#212121"/>
<stop offset="0.9997" stop-color="#616161"/>
</linearGradient>
<linearGradient id="paint110_linear_299_13519" x1="239.496" y1="84.9131" x2="239.496" y2="86.3193" gradientUnits="userSpaceOnUse">
<stop offset="0.0378" stop-color="#506D8F"/>
<stop offset="0.9997" stop-color="#3B4C66"/>
</linearGradient>
<clipPath id="clip0_299_13519">
<rect width="479" height="411" fill="white"/>
</clipPath>
</defs>
</svg>
